<svg width="25" height="24" viewBox="0 0 25 24" fill="none" xmlns="http://www.w3.org/2000/svg">
<path d="M20.9686 2.66642C20.8145 2.49682 20.5948 2.40002 20.3645 2.40002H4.66237C4.4321 2.40002 4.21237 2.49682 4.05832 2.66642C3.90427 2.83602 3.83129 3.06242 3.85643 3.28802L5.64183 19.1464C5.67751 19.4688 5.90859 19.7384 6.22481 19.8272L12.2897 21.5368C12.3626 21.5576 12.4381 21.568 12.5126 21.568C12.5872 21.568 12.6626 21.5576 12.7356 21.5368L18.8005 19.8272C19.1167 19.7384 19.347 19.4688 19.3835 19.1464L21.1697 3.28802C21.1956 3.06242 21.1226 2.83602 20.9686 2.66642ZM16.9859 10.4592L16.6243 16.2872L12.5394 17.6048L8.45454 16.2872L8.29967 13.5H10.3672L10.4191 14.7672L12.5394 15.4768L14.6597 14.7672L14.8145 12.4872H10.2643L10.1613 10.46H14.9183L15.0732 8.43282H7.93724L7.78237 6.40482H17.2445L16.9859 10.4592Z" fill="url(#paint0_linear_227_143)"/>
<defs>
<linearGradient id="paint0_linear_227_143" x1="12.5132" y1="2.40002" x2="12.5132" y2="21.568" gradientUnits="userSpaceOnUse">
<stop stop-color="#BC6FF1"/>
<stop offset="1" stop-color="#9C38F5"/>
</linearGradient>
</defs>
</svg>
