<svg width="86" height="4" viewBox="0 0 86 4" fill="none" xmlns="http://www.w3.org/2000/svg">
<path d="M13 1C13 0.447715 13.4477 0 14 0H72C72.5523 0 73 0.447715 73 1V3C73 3.55228 72.5523 4 72 4H14C13.4477 4 13 3.55228 13 3V1Z" fill="#892CDC"/>
<path d="M80 1C80 0.447715 80.4477 0 81 0H85C85.5523 0 86 0.447715 86 1V3C86 3.55228 85.5523 4 85 4H81C80.4477 4 80 3.55228 80 3V1Z" fill="white"/>
<path d="M0 1C0 0.447715 0.447715 0 1 0H5C5.55228 0 6 0.447715 6 1V3C6 3.55228 5.55228 4 5 4H1C0.447715 4 0 3.55228 0 3V1Z" fill="white"/>
</svg>
