<svg width="32" height="24" viewBox="0 0 32 24" fill="none" xmlns="http://www.w3.org/2000/svg">
<path fill-rule="evenodd" clip-rule="evenodd" d="M31.8352 0.77693C31.9397 0.693349 32 0.569953 32 0.439889C32 0.196945 31.7936 0 31.539 0H0.715705C0.320432 0 0 0.305734 0 0.682877C0 0.885887 0.0946675 1.07837 0.258319 1.20811L15.2846 13.1205C15.6121 13.3801 16.0873 13.3791 16.4134 13.118L31.8352 0.77693ZM1.44358 4.69705C0.869707 4.2421 0 4.63149 0 5.34339V22.6891C0 23.1532 0.394318 23.5294 0.880734 23.5294H31.1193C31.6057 23.5294 32 23.1532 32 22.6891V5.00577C32 4.29206 31.1264 3.90328 30.5533 4.36192L16.5135 15.5971L16.4196 15.6722C16.0934 15.9333 15.6182 15.9343 15.2908 15.6747L15.1966 15.6L1.44358 4.69705Z" fill="url(#paint0_linear_243_305)"/>
<defs>
<linearGradient id="paint0_linear_243_305" x1="16" y1="0" x2="16" y2="23.5294" gradientUnits="userSpaceOnUse">
<stop stop-color="#BC6FF1"/>
<stop offset="1" stop-color="#9C38F5"/>
</linearGradient>
</defs>
</svg>
