<svg width="25" height="24" viewBox="0 0 25 24" fill="none" xmlns="http://www.w3.org/2000/svg">
<path d="M20.9686 2.66642C20.8145 2.49682 20.5948 2.40002 20.3645 2.40002H4.66237C4.4321 2.40002 4.21237 2.49682 4.05832 2.66642C3.90427 2.83602 3.83129 3.06242 3.85643 3.28802L5.64183 19.1464C5.67751 19.4688 5.90859 19.7384 6.22481 19.8272L12.2897 21.5368C12.3626 21.5576 12.4381 21.568 12.5126 21.568C12.5872 21.568 12.6626 21.5576 12.7356 21.5368L18.8005 19.8272C19.1167 19.7384 19.347 19.4688 19.3835 19.1464L21.1697 3.28802C21.1956 3.06242 21.1226 2.83602 20.9686 2.66642ZM17.0775 8.34402H9.83697L10.0089 10.3776H16.9032L16.3859 16.3856L12.5159 17.6L12.4778 17.588L8.65075 16.384L8.44156 13.936H10.3162L10.398 14.8872L12.5362 15.352L14.637 14.8864L14.8599 12.316H8.30048L7.79292 6.40002H17.2462L17.0775 8.34402Z" fill="url(#paint0_linear_228_145)"/>
<defs>
<linearGradient id="paint0_linear_228_145" x1="12.5132" y1="2.40002" x2="12.5132" y2="21.568" gradientUnits="userSpaceOnUse">
<stop stop-color="#BC6FF1"/>
<stop offset="1" stop-color="#9C38F5"/>
</linearGradient>
</defs>
</svg>
