<svg width="25" height="24" viewBox="0 0 25 24" fill="none" xmlns="http://www.w3.org/2000/svg">
<g clip-path="url(#clip0_228_147)">
<path d="M14.6719 -0.0124512C15.9108 2.45075 10.2359 3.97072 9.70888 6.02192C9.22645 7.90672 13.0779 10.0969 13.082 10.0969C12.4966 9.31772 12.0735 8.67382 11.4857 7.45942C10.4916 5.40582 17.3508 3.28675 14.6719 -0.0124512ZM18.7751 3.35786C18.7751 3.35786 14.4483 3.61564 14.2269 6.21724C14.1288 7.37564 15.3639 7.99435 15.3988 8.83755C15.4288 9.52635 14.6608 10.0985 14.6608 10.0985C14.6608 10.0985 15.9278 9.9067 16.3632 8.8563C16.8448 7.6915 15.5522 6.84146 15.6965 5.90786C15.8344 5.01506 18.7751 3.35786 18.7751 3.35786ZM10.6986 10.0985C10.6986 10.0985 6.25185 10.0402 6.25185 11.261C6.25104 12.537 12.0739 12.6262 16.2318 11.8422C16.2318 11.8422 17.175 11.3323 17.4702 11.0579C14.7458 11.5963 8.6922 11.4407 8.6922 10.9735C8.6922 10.5431 10.6986 10.0985 10.6986 10.0985ZM19.5526 10.1313C19.0641 10.1111 18.5294 10.2645 18.0688 10.5891C19.0312 10.3835 19.8424 10.9678 19.8424 11.6422C19.8424 13.1574 17.6365 14.5922 17.6365 14.5922C17.6365 14.5922 21.0523 14.2045 21.0523 11.7125C21.0523 10.6835 20.3668 10.165 19.5526 10.1313ZM9.12136 12.3454C8.42568 12.3446 7.39047 12.8893 7.39047 13.4125C7.39047 14.4653 12.6238 15.2767 16.4978 13.7391L15.1565 12.9063C12.5303 13.7567 7.68784 13.4838 9.12136 12.3454ZM10.1048 14.5907C9.14884 14.5907 8.52909 15.2251 8.52909 15.6891C8.52909 17.1259 14.2357 17.1749 16.4978 15.7141L15.0599 14.8297C13.3718 15.5937 9.12776 15.6979 10.1048 14.5907ZM5.96205 16.7922C4.59936 16.7501 3.97461 17.4371 3.97461 17.9985C3.97461 20.9825 18.7751 20.8395 18.7751 17.7891C18.7751 17.2827 18.2035 17.0418 17.9959 16.9266C19.204 19.8426 5.74351 19.6427 5.74351 17.9219C5.74351 17.5299 6.45625 17.1301 7.36354 17.3125C7.36354 17.3125 7.03097 16.9315 6.59232 16.8563C6.36722 16.818 6.15671 16.7983 5.96205 16.7922ZM21.0523 19.036C18.7034 21.3048 12.2373 22.6821 6.25185 21.2813C12.2656 23.6861 21.0239 21.8208 21.0523 19.036Z" fill="url(#paint0_linear_228_147)"/>
</g>
<defs>
<linearGradient id="paint0_linear_228_147" x1="12.5135" y1="-0.0124512" x2="12.5135" y2="22.388" gradientUnits="userSpaceOnUse">
<stop stop-color="#BC6FF1"/>
<stop offset="1" stop-color="#9C38F5"/>
</linearGradient>
<clipPath id="clip0_228_147">
<rect width="24.3243" height="24" fill="white" transform="translate(0.351318)"/>
</clipPath>
</defs>
</svg>
