<svg width="24" height="24" viewBox="0 0 24 24" fill="none" xmlns="http://www.w3.org/2000/svg">
<path d="M19.2 3.20001H4.79995C3.91595 3.20001 3.19995 3.91601 3.19995 4.80001V19.2C3.19995 20.084 3.91595 20.8 4.79995 20.8H19.2C20.084 20.8 20.7999 20.084 20.7999 19.2V4.80001C20.7999 3.91601 20.084 3.20001 19.2 3.20001ZM12 16.304C12 17.7256 11.128 18.5224 9.67995 18.5224C8.24955 18.5224 7.33835 17.6864 7.33835 16.3344H8.88795C8.89195 16.836 9.19115 17.1528 9.65355 17.1528C10.1288 17.1528 10.384 16.8536 10.384 16.2904V11.9984H12V16.304ZM16.3848 18.5224C14.7776 18.5224 13.7664 17.7656 13.7392 16.5416H15.28C15.3192 17.004 15.7808 17.2984 16.4503 17.2984C17.0535 17.2984 17.4679 17.008 17.4679 16.5896C17.4679 16.2376 17.1904 16.048 16.464 15.9032L15.628 15.736C14.4656 15.516 13.8672 14.8824 13.8672 13.8832C13.8672 12.6416 14.8624 11.8272 16.3936 11.8272C17.8816 11.8272 18.9112 12.6328 18.9376 13.808H17.4455C17.4103 13.3592 16.9832 13.0464 16.4144 13.0464C15.8471 13.0464 15.4735 13.3152 15.4735 13.7376C15.4735 14.0856 15.7552 14.288 16.424 14.42L17.2416 14.5784C18.4967 14.8208 19.06 15.388 19.06 16.396C19.0608 17.7216 18.0488 18.5224 16.3848 18.5224Z" fill="url(#paint0_linear_228_149)"/>
<defs>
<linearGradient id="paint0_linear_228_149" x1="12" y1="3.20001" x2="12" y2="20.8" gradientUnits="userSpaceOnUse">
<stop stop-color="#BC6FF1"/>
<stop offset="1" stop-color="#9C38F5"/>
</linearGradient>
</defs>
</svg>
