<svg width="24" height="24" viewBox="0 0 24 24" fill="none" xmlns="http://www.w3.org/2000/svg">
<path d="M21.2434 2.55986L15.2856 0.975861C15.1935 0.951381 15.0955 0.954741 15.0063 0.985941L2.72402 5.20994C2.5301 5.27666 2.40002 5.45906 2.40002 5.66402V17.28V17.856V18.3672V18.372C2.40002 18.5463 2.5373 18.7258 2.72402 18.7901L15.0063 23.0141C15.0567 23.0309 15.1095 23.04 15.1623 23.04C15.2035 23.04 15.2453 23.0347 15.2856 23.0242L21.2434 21.4402C21.4536 21.384 21.6 21.1935 21.6 20.976V3.02402C21.6 2.80658 21.4536 2.61602 21.2434 2.55986ZM14.4 5.19698V19.3723L3.91346 17.9885L7.36514 16.7227C7.55426 16.6536 7.68002 16.4736 7.68002 16.272V6.58322L14.4 5.19698Z" fill="url(#paint0_linear_230_191)"/>
<defs>
<linearGradient id="paint0_linear_230_191" x1="12" y1="0.959717" x2="12" y2="23.04" gradientUnits="userSpaceOnUse">
<stop stop-color="#BC6FF1"/>
<stop offset="1" stop-color="#9C38F5"/>
</linearGradient>
</defs>
</svg>
