<svg width="24" height="24" viewBox="0 0 24 24" fill="none" xmlns="http://www.w3.org/2000/svg">
<path d="M9.70471 3.53437C8.78657 3.56842 7.70197 3.81146 6.36877 4.36406L4.64846 10.3187C5.58686 9.93955 6.76802 9.6 8.00002 9.6C9.18882 9.6 10.3531 10.1675 11.4891 10.8203L13.275 4.6375C12.3005 4.001 11.235 3.47763 9.70471 3.53437ZM14.6672 5.58281L12.9141 11.6578C13.9669 12.2682 15.028 12.8 16 12.8C17.4808 12.8 18.9258 12.281 19.861 11.8578L21.5922 5.86718C18.0218 7.34078 16.2296 6.60681 14.6672 5.58281ZM8.00002 11.2C6.41282 11.2 4.85575 11.929 4.07815 12.3578L2.39221 18.225C5.94661 16.753 7.71041 17.4997 9.26721 18.5141L11.0313 12.4047C9.93687 11.7591 8.90562 11.2 8.00002 11.2ZM12.4563 13.2406L10.6922 19.3453C12.257 20.3749 14.0484 21.1167 17.6188 19.6375L19.2985 13.7984C18.3417 14.1264 17.192 14.4 16 14.4C14.7608 14.4 13.5899 13.875 12.4563 13.2406Z" fill="url(#paint0_linear_230_193)"/>
<defs>
<linearGradient id="paint0_linear_230_193" x1="11.9922" y1="3.53015" x2="11.9922" y2="20.4703" gradientUnits="userSpaceOnUse">
<stop stop-color="#BC6FF1"/>
<stop offset="1" stop-color="#9C38F5"/>
</linearGradient>
</defs>
</svg>
